<?xml version="1.0" encoding="UTF-8"?>
<svg id="Logotipo" xmlns="http://www.w3.org/2000/svg" viewBox="0 0 500 251.92">
  <defs>
    <style>
      .cls-1 {
        fill: #ef7c1e;
      }

      .cls-2 {
        fill: #1d1d1b;
      }

      .cls-3 {
        fill: #65b875;
      }

      .cls-4, .cls-5 {
        fill: #fff;
      }

      .cls-5 {
        stroke: #000;
        stroke-miterlimit: 10;
        stroke-width: .5px;
      }
    </style>
  </defs>
  <path class="cls-4" d="M94.32,89.01c-13.4,0-27.57,4.15-36.06,11.89-9.06,8.68-9.44,20.96-3.96,29.64,6.42,9.82,16.62,10.95,26.24,7.17,9.44-3.59,16.99-10.95,26.43-10.95,5.47,0,9.44,3.02,9.44,7.74,0,8.87-14.35,14.54-30.4,14.54-20.58,0-44.18-9.25-44.18-32.66,0-27.38,20.96-43.8,56.26-47.58,18.13-1.89,27-8.87,27-22.85,0-19.83-15.67-27.57-32.29-26.81C43.91,19.72,13.89,60.87,13.89,101.66c0,45.31,39.08,67.22,73.26,67.22s49.47-19.83,50.41-39.65c.94-20.01-13.97-40.22-43.24-40.22Z"/>
  <path class="cls-4" d="M262.34,165.47c2.45-3.96,1.7-9.44-5.85-17.56-3.96-4.15-8.68-9.25-12.84-16.43,7.17-11.71,11.52-24.17,11.52-34.74s-5.48-20.2-16.05-20.39c-8.5,0-14.35,4.15-18.31,10.01-6.61-11.52-20.2-13.22-32.85-9.25-27.38,8.68-39.27,28.89-39.27,48.15,0,22.47,12.27,43.43,40.59,43.43,12.65,0,24.73-5.85,35.12-14.73,5.66,7.74,13.03,12.84,21.34,15.1,6.42,1.7,13.59,1.32,16.61-3.59ZM184.93,156.03c-6.61,0-11.14-4.34-11.14-11.71,0-7.93,7.74-17.56,30.96-23.41,3.4-.76,6.23-1.89,8.68-3.21.38,8.31,1.7,15.67,3.96,22.09-10.57,10.95-23.03,16.24-32.47,16.24Z"/>
  <path class="cls-4" d="M288.95,78.81c-10.76,0-22.47,5.48-22.47,21.9,0,29.45,26.24,51.54,20.2,76.47-5.1,21.15-30.96,8.87-40.97,26.24-7.17,12.27-2.27,25.49,7.55,30.96,14.92,8.68,32.29-1.7,42.1-18.88,13.41-23.79,18.31-78.92,18.31-106.3,0-22.09-12.08-30.4-24.73-30.4Z"/>
  <path class="cls-4" d="M291.21,69.94c16.43,0,22.09-11.71,22.09-22.47,0-12.65-8.31-24.73-30.4-24.73-16.43,0-22.09,11.71-22.09,22.47,0,12.65,8.31,24.73,30.4,24.73Z"/>
  <path class="cls-4" d="M461.76,128.09c6.23-.19,10.2-2.08,10.01-8.68-.38-10.95-8.12-17.75-8.12-30.02,0-25.11,22.47-40.4,22.47-58.72,0-9.82-9.44-17.18-23.6-17.37-14.73.19-29.45,9.82-29.27,39.27,0,22.28,4.34,49.28,12.27,64.76,5.1,9.63,11.14,10.76,16.24,10.76Z"/>
  <path class="cls-4" d="M399.69,45.56c-5.93-6.15-16-5.76-19.5.81l-16.61,31.12c-.13.5-.24.99-.34,1.46-.26,1.34,1.25,2.59,2.65,2.2l30.59-8.76c.35-.1.66.33.4.56l-23.32,19.99c-.84.73-.43,2.12.75,2.57l32.8,12.46c.36.13.32.62-.06.62l-33.89-.21c-1.23,0-1.86,1.19-1.18,2.2l19.04,28.04c.21.32-.17.62-.48.39l-28.62-20.31c-1.03-.74-2.42-.3-2.55.8l-3.63,30.5c-.04.34-.58.33-.69-.02l-9.74-30.29c-.45-1.38-2.33-1.94-3.3-.98-.34.34-.68.7-1.02,1.09l-16.61,31.13c-3.47,6.5,1.65,15.11,9.96,16.62,18.1,3.29,36.75,1.31,52.92-6.81,38.21-19.19,48.11-65.42,22.14-103.26-2.93-4.26-6.19-8.24-9.73-11.91Z"/>
  <g>
    <g>
      <path class="cls-5" d="M291.21,74.71c-25.93,0-35.17-15.24-35.17-29.5,0-12.56,7.03-27.24,26.86-27.24,25.93,0,35.17,15.24,35.17,29.5,0,12.57-7.03,27.24-26.86,27.24Z"/>
      <g>
        <path class="cls-5" d="M87.15,173.64c-37.83,0-78.03-25.23-78.03-71.99C9.12,59.23,40.4,14.99,92.76,14.38c.64-.03,1.44-.05,2.24-.05,21.18,0,34.87,12.42,34.87,31.63,0,16.37-10.23,25.4-31.27,27.59-18.23,1.95-48.09,9.42-51.64,37.2,1.35-4.89,4.04-9.49,8.01-13.29,8.98-8.19,24.03-13.22,39.36-13.22,18.98,0,30.33,7.72,36.51,14.2,7.84,8.22,12.03,19.52,11.49,31.01-1.01,21.29-18.71,44.19-55.18,44.19ZM77.49,143.67c3.03.42,5.94.61,8.52.61,15.1,0,25.63-5.15,25.63-9.77,0-2.83-3.89-2.97-4.67-2.97-4.74,0-9.18,2.52-14.31,5.44-3.26,1.85-6.64,3.77-10.42,5.21-1.58.62-3.17,1.12-4.74,1.49Z"/>
        <path class="cls-5" d="M252.35,174.75c-2.51,0-5.15-.36-7.85-1.08-7.97-2.17-15.08-6.64-20.82-13.02-11.08,8.39-22.89,12.8-34.41,12.8-33.48,0-45.36-25.96-45.36-48.19,0-18.94,11.19-42.73,42.6-52.69,4.57-1.43,9.07-2.15,13.39-2.15,8.64,0,15.94,2.91,21.12,8.31,4.91-4.69,11.06-7.14,18.1-7.14,12.49.22,20.82,10.33,20.82,25.16,0,10.42-3.79,22.66-10.72,34.71,3.41,5.34,7.15,9.42,10.72,13.16,8.35,8.98,10.51,16.82,6.46,23.36-2.68,4.36-7.67,6.76-14.04,6.76ZM209.2,124.66c-1.11.35-2.24.66-3.41.92-20.04,5.05-27.23,13.01-27.23,18.76,0,3.16,1.11,6.94,6.37,6.94,6.69,0,17.09-3.41,27.03-12.79-1.28-4.25-2.2-8.88-2.76-13.82Z"/>
        <path class="cls-5" d="M264.63,242.29c-4.83,0-9.46-1.27-13.77-3.78-6-3.34-10.54-9.18-12.4-15.97-1.94-7.11-.83-14.75,3.13-21.52,5.72-9.93,15.74-11.98,23.78-13.62,9.63-1.97,14.75-3.36,16.67-11.33,2.81-11.59-2.47-22.74-8.59-35.65-5.51-11.63-11.75-24.8-11.75-39.7,0-19.69,14.67-26.67,27.24-26.67,14.26,0,29.5,9.24,29.5,35.17,0,29.02-5.14,84.17-18.93,108.64-8.62,15.08-21.98,24.44-34.89,24.44h0Z"/>
        <path class="cls-5" d="M461.76,132.86c-5.76,0-14.14-1.38-20.45-13.3-8.87-17.32-12.83-46.11-12.83-66.99-.26-40.45,25.94-43.94,33.97-44.04,16.79.22,28.43,9.33,28.43,22.14,0,9.78-5.15,18.21-10.61,27.13-5.83,9.53-11.86,19.39-11.86,31.59,0,5.45,1.86,9.75,3.82,14.29,2.01,4.65,4.08,9.46,4.3,15.56.17,6.02-2.23,13.24-14.63,13.62h-.07s-.07,0-.07,0Z"/>
        <path class="cls-5" d="M464.97,173.83c-20.64,0-27.99-12.22-27.99-23.65,0-10.83,6.67-21.76,21.57-21.76,20.5,0,27.8,12.22,27.8,23.65,0,10.83-6.61,21.76-21.38,21.76Z"/>
        <path class="cls-5" d="M350.95,173.83c-5.77,0-11.64-.54-17.46-1.59-5.84-1.06-10.84-4.81-13.36-10.03-2.17-4.48-2.15-9.41.05-13.53l16.87-31.61.36-.41c.41-.47.82-.9,1.23-1.32,1.23-1.23,2.86-1.89,4.61-1.89,2.98,0,5.7,1.96,6.61,4.76l3.55,11.05,1.23-10.33c.38-3.12,2.98-5.37,6.18-5.37,1.39,0,2.73.43,3.88,1.25l8.49,6.02-5.15-7.58c-1.31-1.94-1.46-4.39-.4-6.4,1.07-2.01,3.18-3.25,5.51-3.25l9.19.06-9.73-3.7c-2.19-.84-3.78-2.74-4.18-4.98-.38-2.13.37-4.25,1.99-5.66l7.92-6.79-11.15,3.19c-.61.17-1.23.26-1.85.26-2.05,0-4.07-.96-5.39-2.56-1.26-1.53-1.77-3.5-1.4-5.4.11-.57.25-1.14.39-1.72l.14-.56,16.88-31.63c2.58-4.83,7.65-7.71,13.58-7.71,5.05,0,9.99,2.13,13.57,5.83,3.76,3.9,7.2,8.11,10.22,12.52,13.79,20.08,18.55,43.81,13.08,65.1-5.06,19.65-18.2,35.67-37.01,45.12-11.67,5.86-24.61,8.84-38.46,8.84h0Z"/>
      </g>
    </g>
    <path class="cls-5" d="M348.42,111.6c-.67,0-1.24-.45-1.39-1.1l-1.57-6.7-5.59,4.72-.59.06c-.49,0-.96-.26-1.22-.69-.26-.42-.28-.95-.06-1.39l3.1-6.14-6.88.02c-.69,0-1.27-.47-1.41-1.14-.14-.67.21-1.33.84-1.6l6.33-2.71-5.28-4.41c-.47-.39-.64-1.01-.43-1.58.21-.57.75-.95,1.34-.95h.17l.24.06,6.59,1.99-1.22-6.77c-.07-.42.04-.85.31-1.17.27-.33.68-.52,1.1-.52.48,0,.93.24,1.19.65l3.77,5.76,3.42-5.97c.26-.45.72-.72,1.24-.72.41,0,.81.18,1.08.48.27.3.4.71.35,1.12l-.81,6.83,6.66-2.44.3-.02c.59,0,1.11.36,1.33.91.22.55.08,1.16-.35,1.57l-5.02,4.71,6.47,2.33c.65.23,1.03.87.93,1.55s-.65,1.19-1.34,1.22l-6.87.38,3.46,5.95c.26.45.26.98,0,1.43-.26.45-.73.72-1.24.72h-.4l-.46-.29-5.51-4.12-1.18,6.78c-.12.69-.71,1.19-1.41,1.19Z"/>
  </g>
  <path class="cls-3" d="M362.03,97.9l-7.93-2.86c-.17-.06-.21-.28-.08-.4l6.15-5.77c.19-.18,0-.49-.25-.4l-7.92,2.91c-.17.06-.34-.08-.32-.25l1-8.38c.03-.26-.32-.37-.45-.15l-4.2,7.32c-.09.15-.31.16-.41.01l-4.62-7.06c-.14-.22-.48-.08-.44.17l1.49,8.3c.03.18-.13.32-.3.27l-8.07-2.44c-.25-.08-.42.25-.22.41l6.48,5.4c.14.11.11.33-.06.4l-7.75,3.32c-.24.1-.17.46.09.46l8.43-.02c.18,0,.29.19.21.35l-3.8,7.53c-.12.23.17.46.37.29l6.45-5.44c.14-.12.35-.05.39.13l1.93,8.21c.06.25.42.24.47-.01l1.44-8.31c.03-.18.24-.26.38-.15l6.75,5.05c.21.16.48-.09.35-.31l-4.24-7.29c-.09-.15.02-.35.19-.36l8.42-.47c.26-.01.31-.38.07-.46Z"/>
  <path class="cls-2" d="M13.89,101.66c0-40.78,30.02-81.94,78.92-82.51,16.62-.76,32.29,6.99,32.29,26.81,0,13.97-8.87,20.96-27,22.85-35.31,3.78-56.26,20.2-56.26,47.58,0,23.41,23.6,32.66,44.18,32.66,16.05,0,30.4-5.66,30.4-14.54,0-4.72-3.97-7.74-9.44-7.74-9.44,0-16.99,7.36-26.43,10.95-9.63,3.78-19.82,2.64-26.24-7.17-5.47-8.69-5.1-20.96,3.96-29.64,8.5-7.74,22.66-11.89,36.06-11.89,29.27,0,44.18,20.2,43.24,40.22-.94,19.82-17.37,39.65-50.41,39.65S13.89,146.97,13.89,101.66Z"/>
  <path class="cls-2" d="M148.68,125.26c0-19.26,11.9-39.46,39.27-48.15,12.65-3.96,26.24-2.27,32.85,9.25,3.96-5.85,9.82-10.01,18.31-10.01,10.57.19,16.05,9.44,16.05,20.39s-4.34,23.03-11.52,34.74c4.15,7.17,8.87,12.27,12.84,16.43,7.55,8.12,8.31,13.59,5.85,17.56-3.02,4.91-10.19,5.29-16.61,3.59-8.31-2.27-15.67-7.36-21.34-15.1-10.38,8.87-22.47,14.73-35.12,14.73-28.32,0-40.59-20.96-40.59-43.43ZM184.93,156.03c9.44,0,21.9-5.29,32.47-16.24-2.27-6.42-3.59-13.78-3.96-22.09-2.45,1.32-5.29,2.45-8.68,3.21-23.22,5.85-30.96,15.48-30.96,23.41,0,7.36,4.53,11.71,11.14,11.71Z"/>
  <path class="cls-2" d="M245.71,203.42c10.01-17.37,35.87-5.1,40.97-26.24,6.04-24.92-20.2-47.01-20.2-76.47,0-16.43,11.71-21.9,22.47-21.9,12.65,0,24.73,8.31,24.73,30.4,0,27.38-4.91,82.51-18.31,106.3-9.82,17.18-27.19,27.57-42.1,18.88-9.82-5.48-14.73-18.69-7.55-30.96ZM260.82,45.2c0-10.76,5.66-22.47,22.09-22.47,22.09,0,30.4,12.08,30.4,24.73,0,10.76-5.66,22.47-22.09,22.47-22.09,0-30.4-12.08-30.4-24.73Z"/>
  <path class="cls-2" d="M445.52,117.33c-7.93-15.48-12.27-42.48-12.27-64.76-.19-29.45,14.54-39.08,29.27-39.27,14.16.19,23.6,7.55,23.6,17.37,0,18.31-22.47,33.61-22.47,58.72,0,12.27,7.74,19.07,8.12,30.02.19,6.61-3.78,8.5-10.01,8.68-5.1,0-11.14-1.13-16.24-10.76ZM441.74,150.18c0-8.12,4.34-16.99,16.8-16.99,16.8,0,23.03,9.06,23.03,18.88,0,7.93-4.15,16.99-16.61,16.99-16.8,0-23.22-9.06-23.22-18.88Z"/>
  <path class="cls-1" d="M399.69,45.56c3.54,3.67,6.8,7.65,9.73,11.91,25.97,37.84,16.07,84.07-22.14,103.26-16.17,8.13-34.82,10.11-52.92,6.81-8.31-1.51-13.42-10.13-9.96-16.62l16.61-31.13c.34-.39.68-.75,1.02-1.09.97-.96,2.85-.4,3.3.98l9.74,30.29c.11.34.64.36.69.02l3.63-30.5c.13-1.1,1.52-1.54,2.55-.8l28.62,20.31c.31.23.69-.08.48-.39l-19.04-28.04c-.69-1.02-.05-2.21,1.18-2.2l33.89.21c.38,0,.42-.48.06-.62l-32.8-12.46c-1.19-.45-1.59-1.84-.75-2.57l23.32-19.99c.26-.23-.05-.66-.4-.56l-30.59,8.76c-1.4.4-2.91-.86-2.65-2.2.1-.47.21-.96.34-1.46l16.61-31.12c3.51-6.57,13.58-6.96,19.5-.81Z"/>
</svg>